<?xml version="1.0" standalone="no"?>
<!DOCTYPE svg PUBLIC "-//W3C//DTD SVG 1.1//EN" "http://www.w3.org/Graphics/SVG/1.1/DTD/svg11.dtd">
<svg xmlns="http://www.w3.org/2000/svg">
<metadata>Generated by Fontastic.me</metadata>
<defs>
<font id="contamar" horiz-adv-x="512">
<font-face font-family="contamar" units-per-em="512" ascent="480" descent="-32"/>
<missing-glyph horiz-adv-x="512" />

<glyph glyph-name="mi-equipo-black" unicode="&#98;" d="M347 347l0-13-182 0 1 13c2 30 22 58 51 72-8 9-13 21-13 33 0 29 24 52 52 52 29 0 52-23 52-52 0-12-4-24-12-33 28-14 48-42 51-72z m-68 62l-15 4 13 9c10 7 16 18 16 30 0 21-17 37-37 37-20 0-36-16-36-37 0-12 6-23 16-30l13-9-16-4c-25-8-45-35-51-60l148 0c-5 25-25 52-51 60z m109-153l0-31 15 0 0 47-294 0 0-47 15 0 0 31z m-140 62l0-62 16 0 0 62z m-52-287l1-9-182 0 1 9c2 30 22 58 51 72-8 9-13 21-13 33 0 29 23 52 52 52 29 0 52-23 52-52 0-12-5-24-13-33 29-14 49-42 51-72z m-67 62l-15 4 13 9c9 7 15 18 15 30 0 21-16 37-36 37-20 0-36-16-36-37 0-12 6-23 15-30l13-9-15-4c-26-8-46-30-51-55l148 0c-5 25-25 47-51 55z m368-62l1-9-182 0 0 9c3 30 23 58 51 72-8 9-12 21-12 33 0 29 23 52 52 52 28 0 52-23 52-52 0-12-5-24-13-33 29-14 49-42 51-72z m-68 62l-15 4 13 9c10 7 16 18 16 30 0 21-16 37-36 37-20 0-37-16-37-37 0-12 6-23 16-30l13-9-15-4c-26-8-46-30-51-55l148 0c-6 25-26 47-52 55z"/>
<glyph glyph-name="mi-negocio-black" unicode="&#99;" d="M444 487l-45 2c-5 0-8 4-8 8 1 4 4 8 8 7l66-3c5 0 9-4 8-9l-12-62c-1-5-5-7-9-7-5 1-7 5-7 9l9 43-159-95c-3-1-6-1-8 0l-81 45-156-88c-4-2-8 0-11 3-2 4 0 9 3 11l161 90c2 1 5 1 7 0l80-45z m-258-247l140 0 0 131c0 5 4 8 8 8l155 0c5 0 8-3 8-8l0-341c0-4-3-7-8-7l-155 0c0 0 0 0 0 0 0 0 0 0 0 0l-151 1c-2-1-3-1-5-1l-170 0c-5 0-8 6-8 11l0 245c0 5 3 8 8 8l170 0c4 0 8-3 8-8z m296-202l0 326-140 0 0-326z m-156 1l0 186-140 0 0-186z m-155 0l0 233-155 0 0-233z m211 124c-5 0-10 4-10 10l0 26c0 6 5 10 10 10l12 0c5 0 9-4 9-10l0-26c0-6-4-10-9-10z m46 0c-5 0-9 4-9 10l0 26c0 6 4 10 9 10l13 0c5 0 9-4 9-10l0-26c0-6-4-10-9-10z m-46 62c-5 0-10 4-10 10l0 26c0 6 5 11 10 11l12 0c5 0 9-5 9-11l0-26c0-6-4-10-9-10z m46 0c-5 0-9 4-9 10l0 26c0 6 4 11 9 11l13 0c5 0 9-5 9-11l0-26c0-6-4-10-9-10z m-46 62c-5 0-10 5-10 10l0 26c0 6 5 11 10 11l12 0c5 0 9-5 9-11l0-26c0-5-4-10-9-10z m46 0c-5 0-9 5-9 10l0 26c0 6 4 11 9 11l13 0c5 0 9-5 9-11l0-26c0-5-4-10-9-10z m-46-186c-5 0-10 4-10 10l0 26c0 6 5 10 10 10l12 0c5 0 9-4 9-10l0-26c0-6-4-10-9-10z m46 0c-5 0-9 4-9 10l0 26c0 6 4 10 9 10l13 0c5 0 9-4 9-10l0-26c0-6-4-10-9-10z m-372 93c-5 0-9 4-9 10l0 26c0 6 4 10 9 10l12 0c5 0 10-4 10-10l0-26c0-6-5-10-10-10z m62 0c-5 0-9 4-9 10l0 26c0 6 4 10 9 10l12 0c5 0 10-4 10-10l0-26c0-6-5-10-10-10z m-62-78c-5 0-9 5-9 10l0 27c0 5 4 10 9 10l12 0c5 0 10-5 10-10l0-27c0-5-5-10-10-10z m62 0c-5 0-9 5-9 10l0 27c0 5 4 10 9 10l12 0c5 0 10-5 10-10l0-27c0-5-5-10-10-10z"/>
<glyph glyph-name="mis-impuestos-black" unicode="&#100;" d="M480 40l0 432c0 13-10 24-22 24l-372 0c-12 0-22-11-22-24l0-432c0-13 10-24 22-24l372 0c12 0 22 11 22 24z m16 0c0-22-17-40-38-40l-372 0c-21 0-38 18-38 40l0 432c0 22 17 40 38 40l372 0c21 0 38-18 38-40z m-129 296c0 0 1 1 1 2l0 60c0 1-1 2-1 2l-158 0c0 0-1-1-1-2l0-60c0-1 1-2 1-2z m0-16l-158 0c-10 0-17 8-17 18l0 60c0 10 7 18 17 18l158 0c10 0 17-8 17-18l0-60c0-10-7-18-17-18z m-343 66l87 0c5 0 8 4 8 8 0 5-3 8-8 8l-87 0c-5 0-8-3-8-8 0-4 3-8 8-8z m0-130l87 0c5 0 8 3 8 8 0 4-3 8-8 8l-87 0c-5 0-8-4-8-8 0-5 3-8 8-8z m0-131l87 0c5 0 8 4 8 8 0 5-3 8-8 8l-87 0c-5 0-8-3-8-8 0-4 3-8 8-8z m176 147l128 0c4 0 8 4 8 8 0 4-4 8-8 8l-128 0c-4 0-8-4-8-8 0-4 4-8 8-8z"/>
<glyph glyph-name="mis-numeros-black" unicode="&#101;" d="M144 416l-84 0c-24 0-44-18-44-40l0-320c0-22 20-40 44-40l392 0c25 0 44 18 44 40l0 320c0 3 0 5-1 8l-423 0c-4 0-8 4-8 8 0 4 4 8 8 8l30 0c0 0 1 0 1 0z m46 0l-43-16 292 0-36 95c0 1-1 1-2 1l-191-72 0-8z m-3 16l209 79c9 3 19-1 22-10l26-69 8 0c25 0 45-13 55-33 2-1 4-4 4-7 0-1 0-2-1-3 1-4 2-9 2-13l0-320c0-31-27-56-60-56l-392 0c-33 0-60 25-60 56l0 320c0 31 27 56 60 56z m263-16l6-16 31 0c-8 10-20 16-35 16z m46-240l0-16-118 0c-14 0-26 11-26 25l0 94c0 14 12 25 26 25l118 0 0-16-118 0c-6 0-10-4-10-9l0-94c0-5 4-9 10-9z"/>
<glyph glyph-name="mis-objetivos-black" unicode="&#102;" d="M446 264c0 109-89 197-198 197-109 0-197-88-197-197 0-109 88-198 197-198 109 0 198 89 198 198z m16 0c0-118-96-214-214-214-118 0-213 96-213 214 0 118 95 213 213 213 118 0 214-95 214-213z m-166 0c0 26-21 48-48 48-26 0-48-22-48-48 0-27 22-48 48-48 27 0 48 21 48 48z m16 0c0-35-28-64-64-64-35 0-64 28-64 64 0 35 29 64 64 64 36 0 64-29 64-64z m-72 240l0-93c0-4 4-8 8-8 5 0 8 4 8 8l0 93c0 5-3 8-8 8-4 0-8-3-8-8z m0-388l0-93c0-4 4-8 8-8 5 0 8 4 8 8l0 93c0 5-3 8-8 8-4 0-8-3-8-8z m249 156l-93 0c-4 0-8-4-8-8 0-5 4-8 8-8l93 0c4 0 8 3 8 8 0 4-4 8-8 8z m-388 0l-93 0c-5 0-8-4-8-8 0-5 3-8 8-8l93 0c4 0 8 3 8 8 0 4-4 8-8 8z"/>
<glyph glyph-name="contaup-logo" unicode="&#103;" d="M38 222l17 0 0-17-17 0c0 0 0 0 0 0-21 0-38 16-38 37 0 0 0 0 0 1 0 0 0 0 0 0 0 21 17 37 38 37 0 0 0 0 0 0l17 0 0-17-17 0 0 0c0 0 0 0-1 0-11 0-20-9-20-20 0 0 0 0 0 0 0-1 0-1 0-1 0-11 9-20 20-20m295 21c0 12 9 21 20 21 11 0 21-9 21-21 0-11-10-20-21-20-11 0-20 9-20 20m20 37c-21 0-38-17-38-37 0-21 17-38 38-38l0 0 0 0 38 0 0 38 0 0c0 20-17 37-38 37m-94 0l18 0 21 0 0-17-21 0 0-20 0 0c0-1 0-1 0-1 0-11 9-20 21-20 0 0 0 0 0 0l0-17c0 0 0 0-1 0-21 0-38 17-38 38 0 0 0 0 0 0l0 37m-34-37c0 12-9 21-20 21 0 0-1 0-1 0 0 0 0 0-1 0-11 0-20-9-20-21 0 0 0 0 0-1l0 0 0-37-18 0 0 37c0 1 0 1 0 1 0 20 17 37 38 37 1 0 1 0 1 0 0 0 1 0 1 0 21 0 38-17 38-37 0 0 0 0 0-1l0-37-18 0 0 38m-114-20c-11 0-20 9-20 20 0 12 9 21 20 21 11 0 21-9 21-21 0-11-10-20-21-20m0 57c-21 0-38-17-38-37 0-21 17-38 38-38 21 0 38 17 38 38 0 20-17 37-38 37m350 27c28 0 51-23 51-51 0-28-23-51-51-51l-52 0 0 51c0 28 23 51 52 51z m22-25c-12 0-21-9-21-20l0-35 10 0 0 15 11 0 0 0 0 0c11 0 20 9 20 20 0 11-9 20-20 20z m-37-33c0-5-5-10-11-10l-1 0c-6 0-11 5-11 10l0 20-9 0c0 0 0-19 0-19 0-11 9-19 20-19l1 0c11 0 20 8 20 19 0 0 0 19 0 19l-9 0z m36 3c-6 0-11 5-11 10 0 6 5 11 11 11 7 0 12-5 12-11 0-5-5-10-12-10z m30-41c0-3-3-6-6-6-4 0-7 3-7 6 0 4 3 7 7 7 3 0 6-3 6-7z"/>
<glyph glyph-name="message-black" unicode="&#104;" d="M58 102c-20 0-41 21-41 41l0 258 230-188 248 188 0-258c0-20-21-41-41-41z m414 308l-225-171-209 171z m-472 17l0-284c0-32 26-58 58-58l396 0c32 0 58 26 58 58l0 284z"/>
<glyph glyph-name="alert-black" unicode="&#105;" d="M34 123c11 27 28 70 41 86 58 75 49 166 48 169 0 0 0 41 30 71 22 23 57 35 103 35 46 0 81-12 103-35 30-30 30-70 30-70-1-4-10-95 48-170 13-16 30-59 41-86z m222-95c-39 0-71 29-75 66l150 0c-4-37-36-66-75-66z m255 85c-1 3-28 84-51 114-51 65-43 148-43 150 0 2 2 52-37 91-28 29-70 44-124 44-54 0-96-15-124-44-39-39-37-89-37-92 0-1 8-84-43-149-23-30-50-111-51-114-2-4-1-9 2-13 2-3 7-6 11-6l139 0c4-52 48-94 103-94 55 0 99 42 103 94l139 0c4 0 9 3 11 6 3 4 4 9 2 13z"/>
<glyph glyph-name="arrow-dropdown-black" unicode="&#106;" d="M254 218c-25 25-50 50-73 73l-1 1c-30 29-55 54-73 72-11 10-19 18-25 24-3 3-6 6-7 7-2 2-2 2-3 3-1 1-1 1-16 9-22 8-46-4-54-27-7-22 5-46 27-54-9 3-1-3-12 7 1-1 3-4 6-6 6-6 14-14 24-24 18-18 43-42 73-72l1 0c23-23 48-48 73-73 14-14 14-14 24-24 7-7 7-7 9-9 17-17 44-17 60 0l212 212c16 16 16 43 0 60-17 17-44 17-61 0l-181-182c-1 1-2 2-3 3z"/>
<glyph glyph-name="arrow-left-black" unicode="&#107;" d="M256 0c-141 0-256 115-256 256 0 141 115 256 256 256 141 0 256-115 256-256 0-141-115-256-256-256z m-9 294c19 18 34 33 45 44 7 7 12 12 15 15 3 3 4 4 5 5 1 1 1 1 2 2 1 0 1 0 7 11 6 17-3 35-20 41-17 6-35-3-41-20 6 11 6 11 6 11-1-1-1-2-4-4-3-4-8-9-15-15-11-11-26-26-44-44-15-14-31-29-46-44-10-9-17-16-21-20-13-13-13-34 0-46l132-127c13-13 33-12 46 0 12 13 12 33-1 46l-109 104c15 14 29 28 43 41z"/>
<glyph glyph-name="arrow-left-hover-black" unicode="&#108;" d="M257 0c141 0 256 115 256 256 0 141-115 256-256 256-142 0-256-115-256-256 0-141 114-256 256-256z m0 32c-124 0-224 100-224 224 0 124 100 224 224 224 123 0 224-100 224-224 0-124-101-224-224-224z m-10 182c-14 13-28 27-43 41l109 104c13 12 13 32 1 45-13 13-33 13-46 1l-132-127c-13-13-13-34 0-46 4-4 11-11 21-20 15-15 31-30 46-45 18-18 33-33 44-44 7-6 12-11 15-14 3-2 3-3 4-4 0-1 0-1-6 10 6-17 24-25 41-20 17 6 26 25 20 41-6 11-6 11-7 12-1 1-1 1-2 2-1 1-2 2-5 4-3 4-8 9-15 15-11 11-26 26-45 45z"/>
<glyph glyph-name="next-page-black" unicode="&#109;" d="M463 271l-440 0c-8 0-14-7-14-15 0-7 6-14 14-14l439 0c-11-11-22-21-32-31l-1-1c-16-16-30-29-39-39-6-5-11-10-14-13-1-1-3-3-4-4 0 0 0 0-1-1 0 0 0 0-3-5-3-8 1-16 9-18 7-3 15 1 18 8-1-3 1 0-2-3 1 0 2 2 3 3 4 3 8 8 13 13 10 10 24 23 40 39l0 0c13 13 27 26 40 39 5 5 8 8 14 13 4 4 4 4 5 5 5 6 5 15 0 20l-117 113c-6 5-15 5-20 0-6-6-5-15 0-20z"/>
<glyph glyph-name="previous-page-black" unicode="&#110;" d="M57 271l441 0c8 0 14-7 14-15 0-7-6-14-14-14l-439 0c11-11 22-21 32-31l1-1c16-16 29-29 39-39 6-5 10-10 13-13 2-1 3-3 4-4 1 0 1 0 2-1 0 0 0 0 3-5 2-8-1-16-9-18-7-3-15 1-18 8 1-3-1 0 2-3-1 0-2 2-4 3-3 3-7 8-13 13-10 10-23 23-39 39l-1 0c-13 13-26 26-40 39-5 5-8 8-13 13-4 4-4 4-5 5-6 6-6 15 0 20l117 113c5 5 14 5 20 0 5-6 5-15-1-20z"/>
<glyph glyph-name="arrow-right-black" unicode="&#112;" d="M256 0c-141 0-256 115-256 256 0 141 115 256 256 256 141 0 256-115 256-256 0-141-115-256-256-256z m10 214c-19-19-34-34-46-45-6-6-11-11-15-15-2-2-3-3-4-4-1-1-1-1-2-2-1-1-1-1-7-12-6-16 3-35 19-41 17-5 35 3 41 20-6-11-6-11-6-10 1 1 2 2 4 4 4 3 9 8 15 14 11 11 27 26 45 44 15 15 30 30 46 45 9 9 16 16 21 20 13 12 13 33 0 46l-133 127c-13 12-33 12-45-1-12-13-12-33 1-45l108-104c-14-14-29-28-42-41z"/>
<glyph glyph-name="arrow-right-hover-black" unicode="&#113;" d="M256 0c-141 0-256 115-256 256 0 141 115 256 256 256 141 0 256-115 256-256 0-141-115-256-256-256z m0 32c124 0 224 100 224 224 0 124-100 224-224 224-124 0-224-100-224-224 0-124 100-224 224-224z m10 182c13 13 28 27 42 41l-108 104c-13 12-13 32-1 45 12 13 32 13 45 1l133-127c13-13 13-34 0-46-5-4-12-11-21-20-16-15-31-30-46-45-18-18-34-33-45-44-6-6-11-11-15-14-2-2-3-3-4-4 0-1 0-1 6 10-6-17-24-25-41-20-16 6-25 25-19 41 6 11 6 11 7 12 1 1 1 1 2 2 1 1 2 2 4 4 4 4 9 9 15 15 12 11 27 26 46 45z"/>
<glyph glyph-name="download-black" unicode="&#111;" d="M512 215c-9 67-94 184-98 188l-2 2-79 0 0-21 70 0c15-17 81-117 90-171 2-15-2-27-13-40-15-15-34-24-53-24l-342 0c-19 0-38 9-49 24-10 10-17 25-15 40 7 54 73 154 90 171l75 0 0 21-86 0-2-4c-4-2-89-119-98-186 0-2 0-4 0-6l0-102c0-2 0-28 17-47 13-11 28-17 49-17l382 0c19 0 36 6 47 17 17 19 17 45 17 47l0 102c0 2 0 4 0 6z m-66-151l-380 0c-15 0-25 4-32 11-13 12-13 32-13 32l0 49c17-17 41-28 64-28l342 0c23 0 47 11 64 28l0-49c0 0 0-20-13-30-7-9-17-13-32-13z m-115 247c4 5 10 5 15 0 4-4 4-10 0-14l-90-92-90 89c-4 5-4 13 0 17 5 5 11 5 15 0l64-64 0 214c0 4 5 8 11 8 6 0 11-4 11-10l0-214z"/>
<glyph glyph-name="download-pressed-black" unicode="&#114;" d="M511 215c1-2 0-4 1-5l0-104c0-1 0-27-18-46-11-11-28-17-48-17l-380 0c-21 0-37 6-48 18-18 18-18 44-18 45l0 104c1 1 0 3 1 5 8 67 93 183 97 187l3 3 85 0 0-21-76 0c-15-17-82-118-88-171-2-15 3-29 13-41 13-14 32-23 50-23l342 0c18 0 37 9 50 23 10 12 15 26 13 41-6 53-73 154-88 171l-70 0 0 21 79 0 3-3c4-4 89-120 97-187z m-180 95c5 5 11 5 16 0 4-4 4-10 0-15l-91-90-91 90c-4 5-4 11 0 15 5 5 11 5 16 0l64-64 0 213c0 6 5 10 11 10 6 0 11-4 11-10l0-213z"/>
<glyph glyph-name="print-black" unicode="&#115;" d="M173 107l168 0c7 0 11 4 11 10 0 7-4 11-11 11l-168 0c-7 0-11-4-11-11 0-6 4-10 11-10z m0 42l168 0c7 0 11 5 11 11 0 6-4 11-11 11l-168 0c-7 0-11-5-11-11 0-6 4-11 11-11z m339 192c0 37-30 64-64 64l-64 0 0 54c0 6-4 10-11 10l-234 0c-7 0-11-4-11-10l0-54-64 0c-34 0-64-27-64-64l0-170c0-37 28-64 64-64l43 0 0-54c0-6 4-10 10-10l278 0c6 0 10 4 10 10l0 54 43 0c36 0 64 27 64 64z m-363 107l214 0 0-43-214 0z m235-384l-256 0 0 128 256 0z m64 64l-43 0 0 64 24 0c6 0 10 4 10 11 0 6-6 10-12 10l-340 0c-6 0-10-4-10-10 0-7 4-11 10-11l20 0 0-64-43 0c-23 0-43 19-43 43l0 170c0 24 20 43 43 43l384 0c23 0 43-19 43-43l0-170c0-24-20-43-43-43z"/>
<glyph glyph-name="print-pressed-black" unicode="&#116;" d="M352 117c0-6-4-10-11-10l-168 0c-7 0-11 4-11 10 0 7 4 11 11 11l168 0c7 0 11-4 11-11z m-11 54l-168 0c-7 0-11-5-11-11 0-6 4-11 11-11l168 0c7 0 11 5 11 11 0 6-4 11-11 11z m171 0c0-37-28-64-64-64l-43 0 0-54c0-6-4-10-10-10l-278 0c-6 0-10 4-10 10l0 54-43 0c-36 0-64 27-64 64l0 170c0 37 30 64 64 64l64 0 0 54c0 6 4 10 11 10l234 0c7 0 11-4 11-10l0-54 64 0c36 0 64-27 64-64z m-363 234l214 0 0 43-214 0z m295-202c0 6-9 10-22 10l-330 0c-11 0-22-4-22-10 0-7 9-11 22-11l36 0 0-128 256 0 0 128 38 0c11 0 22 4 22 11z"/>
<glyph glyph-name="bmp-black" unicode="&#117;" d="M441 329l-13 0 0 59c0 1 0 1 0 1 0 3 0 5-2 7l-99 113c0 0 0 0 0 0 0 0-1 1-2 1 0 0 0 1 0 1-1 0-2 0-2 1-1 0-1 0-1 0-1 0-2 0-2 0l-243 0c-11 0-20-9-20-20l0-163-12 0c-16 0-29-13-29-29l0-149c0-16 13-29 29-29l12 0 0-102c0-11 9-20 20-20l331 0c11 0 20 9 20 20l0 102 13 0c16 0 28 13 28 29l0 149c0 16-12 29-28 29z m-364 163l233 0 0-103c0-5 4-10 10-10l88 0 0-50-331 0z m331-466l-331 0 0 96 331 0z m-356 271l42 0c20 0 34-3 43-8 8-6 13-15 13-27 0-8-2-15-6-20-4-5-9-8-15-9l0-1c8-2 15-6 18-11 4-5 6-12 6-21 0-13-4-23-13-30-9-7-22-10-37-10l-51 0z m29-54l16 0c8 0 14 1 18 3 3 3 5 7 5 13 0 5-2 9-6 11-4 2-10 3-18 3l-15 0z m0-23l0-36 19 0c8 0 13 2 17 5 4 3 6 7 6 14 0 11-8 17-24 17z m148-60l-33 108-1 0c1-22 2-37 2-44l0-64-26 0 0 137 40 0 32-105 1 0 34 105 39 0 0-137-27 0 0 65c0 3 0 6 1 10 0 4 0 15 1 32l-1 0-35-107z m142 73l10 0c9 0 16 1 20 5 5 3 7 9 7 15 0 7-2 12-6 15-4 4-9 5-17 5l-14 0z m66 21c0-14-5-26-14-34-9-7-22-11-39-11l-13 0 0-49-29 0 0 137 44 0c17 0 29-4 38-11 9-7 13-18 13-32z"/>
<glyph glyph-name="doc-black" unicode="&#118;" d="M441 329l-13 0 0 59c0 1 0 1 0 1 0 3 0 5-2 7l-99 113c0 0 0 0 0 0 0 0-1 1-2 1 0 0 0 1 0 1-1 0-2 0-2 1-1 0-1 0-1 0-1 0-2 0-2 0l-243 0c-11 0-20-9-20-20l0-163-12 0c-16 0-29-13-29-29l0-149c0-16 13-29 29-29l12 0 0-102c0-11 9-20 20-20l331 0c11 0 20 9 20 20l0 102 13 0c16 0 28 13 28 29l0 149c0 16-12 29-28 29z m-364 163l233 0 0-103c0-5 4-10 10-10l88 0 0-50-331 0z m331-466l-331 0 0 96 331 0z m-246 204c0-23-6-40-19-52-13-12-31-18-56-18l-38 0 0 137 43 0c22 0 39-6 52-18 12-11 18-28 18-49z m-30-1c0 30-13 44-39 44l-15 0 0-89 12 0c28 0 42 15 42 45z m183 0c0-23-5-40-17-53-11-12-27-18-48-18-21 0-37 6-48 18-12 13-17 30-17 53 0 23 5 40 17 52 11 12 27 18 48 18 21 0 37-6 48-18 12-12 17-30 17-52z m-100 0c0-16 3-27 9-35 6-8 14-12 26-12 23 0 35 16 35 47 0 31-12 46-35 46-11 0-20-4-26-12-6-7-9-19-9-34z m187 46c-11 0-20-4-26-12-6-9-9-20-9-35 0-30 12-46 35-46 9 0 21 3 35 8l0-25c-12-5-24-7-38-7-20 0-35 6-46 18-10 12-16 30-16 52 0 15 3 27 8 38 5 11 13 19 23 24 9 6 21 9 34 9 13 0 26-3 40-10l-9-23c-6 2-11 4-16 6-5 2-10 3-15 3z"/>
<glyph glyph-name="gif-black" unicode="&#119;" d="M441 329l-13 0 0 59c0 1 0 1 0 1 0 3 0 5-2 7l-99 113c0 0 0 0 0 0 0 0-1 1-2 1 0 0 0 1 0 1-1 0-2 0-2 1-1 0-1 0-1 0-1 0-2 0-2 0l-243 0c-11 0-20-9-20-20l0-163-12 0c-16 0-29-13-29-29l0-149c0-16 13-29 29-29l12 0 0-102c0-11 9-20 20-20l331 0c11 0 20 9 20 20l0 102 13 0c16 0 28 13 28 29l0 149c0 16-12 29-28 29z m-364 163l233 0 0-103c0-5 4-10 10-10l88 0 0-50-331 0z m331-466l-331 0 0 96 331 0z m-253 211l55 0 0-71c-9-3-17-5-25-6-8-1-16-2-24-2-21 0-37 6-47 18-11 13-17 30-17 53 0 22 7 39 19 51 13 13 30 19 53 19 14 0 27-3 40-8l-9-24c-10 5-21 8-31 8-13 0-23-4-31-13-7-8-11-20-11-34 0-15 3-26 9-34 6-8 15-12 27-12 6 0 12 1 18 2l0 29-26 0z m87-77l0 137 29 0 0-137z m92 0l-28 0 0 137 78 0 0-24-50 0 0-35 47 0 0-24-47 0z"/>
<glyph glyph-name="jpg-black" unicode="&#120;" d="M441 329l-13 0 0 59c0 1 0 1 0 1 0 3 0 5-2 7l-99 113c0 0 0 0 0 0 0 0-1 1-2 1 0 0 0 1 0 1-1 0-2 0-2 1-1 0-1 0-1 0-1 0-2 0-2 0l-243 0c-11 0-20-9-20-20l0-163-12 0c-16 0-29-13-29-29l0-149c0-16 13-29 29-29l12 0 0-102c0-11 9-20 20-20l331 0c11 0 20 9 20 20l0 102 13 0c16 0 28 13 28 29l0 149c0 16-12 29-28 29z m-364 163l233 0 0-103c0-5 4-10 10-10l88 0 0-50-331 0z m331-466l-331 0 0 96 331 0z m-327 94c-6 0-12 0-17 2l0 24c5-1 10-2 14-2 6 0 11 2 14 6 2 4 4 10 4 19l0 128 29 0 0-128c0-16-4-28-11-37-8-8-18-12-33-12z m107 113l10 0c9 0 15 1 20 5 4 3 7 9 7 15 0 7-2 12-6 15-4 4-10 5-17 5l-14 0z m66 21c0-14-5-26-14-34-9-7-22-11-39-11l-13 0 0-49-29 0 0 137 44 0c17 0 29-4 38-11 9-7 13-18 13-32z m78-17l54 0 0-71c-9-3-17-5-25-6-7-1-15-2-24-2-20 0-36 6-47 18-11 13-16 30-16 53 0 22 6 39 19 51 12 13 30 19 52 19 14 0 28-3 41-8l-10-24c-10 5-20 8-31 8-12 0-22-4-30-13-8-8-11-20-11-34 0-15 3-26 9-34 6-8 15-12 26-12 6 0 13 1 19 2l0 29-26 0z"/>
<glyph glyph-name="ppt-black" unicode="&#121;" d="M441 329l-13 0 0 59c0 1 0 1 0 1 0 3 0 5-2 7l-99 113c0 0 0 0 0 0 0 0-1 1-2 1 0 0 0 1 0 1-1 0-2 0-2 1-1 0-1 0-1 0-1 0-2 0-2 0l-243 0c-11 0-20-9-20-20l0-163-12 0c-16 0-29-13-29-29l0-149c0-16 13-29 29-29l12 0 0-102c0-11 9-20 20-20l331 0c11 0 20 9 20 20l0 102 13 0c16 0 28 13 28 29l0 149c0 16-12 29-28 29z m-364 163l233 0 0-103c0-5 4-10 10-10l88 0 0-50-331 0z m331-466l-331 0 0 96 331 0z m-298 207l10 0c9 0 15 1 20 5 4 3 6 9 6 15 0 7-1 12-5 15-4 4-10 5-18 5l-13 0z m66 21c0-14-5-26-14-34-9-7-22-11-39-11l-13 0 0-49-29 0 0 137 44 0c17 0 29-4 38-11 8-7 13-18 13-32z m55-21l9 0c9 0 16 1 20 5 5 3 7 9 7 15 0 7-2 12-6 15-3 4-9 5-17 5l-13 0z m65 21c0-14-4-26-13-34-10-7-23-11-40-11l-12 0 0-49-29 0 0 137 43 0c17 0 30-4 38-11 9-7 13-18 13-32z m79-94l-29 0 0 113-37 0 0 24 103 0 0-24-37 0z"/>
<glyph glyph-name="png-black" unicode="&#122;" d="M441 329l-13 0 0 59c0 1 0 1 0 1 0 3 0 5-2 7l-99 113c0 0 0 0 0 0 0 0-1 1-2 1 0 0 0 1 0 1-1 0-2 0-2 1-1 0-1 0-1 0-1 0-2 0-2 0l-243 0c-11 0-20-9-20-20l0-163-12 0c-16 0-29-13-29-29l0-149c0-16 13-29 29-29l12 0 0-102c0-11 9-20 20-20l331 0c11 0 20 9 20 20l0 102 13 0c16 0 28 13 28 29l0 149c0 16-12 29-28 29z m-364 163l233 0 0-103c0-5 4-10 10-10l88 0 0-50-331 0z m331-466l-331 0 0 96 331 0z m-330 207l10 0c9 0 16 1 20 5 5 3 7 9 7 15 0 7-2 12-6 15-4 4-9 5-17 5l-14 0z m66 21c0-14-5-26-14-34-9-7-22-11-39-11l-13 0 0-49-29 0 0 137 44 0c17 0 29-4 38-11 9-7 13-18 13-32z m148-94l-37 0-60 104-1 0c1-19 2-32 2-40l0-64-26 0 0 137 37 0 59-103 1 0c-1 18-2 31-2 38l0 65 27 0z m86 77l54 0 0-71c-8-3-17-5-24-6-8-1-16-2-24-2-21 0-37 6-48 18-11 13-16 30-16 53 0 22 6 39 19 51 13 13 30 19 53 19 14 0 27-3 40-8l-9-24c-10 5-21 8-32 8-12 0-22-4-30-13-7-8-11-20-11-34 0-15 3-26 9-34 6-8 15-12 27-12 6 0 12 1 18 2l0 29-26 0z"/>
<glyph glyph-name="pdf-black" unicode="&#65;" d="M441 329l-13 0 0 59c0 1 0 1 0 1 0 3 0 5-2 7l-99 113c0 0 0 0 0 0 0 0-1 1-2 1 0 0 0 1 0 1-1 0-2 0-2 1-1 0-1 0-1 0-1 0-2 0-2 0l-243 0c-11 0-20-9-20-20l0-163-12 0c-16 0-29-13-29-29l0-149c0-16 13-29 29-29l12 0 0-102c0-11 9-20 20-20l331 0c11 0 20 9 20 20l0 102 13 0c16 0 28 13 28 29l0 149c0 16-12 29-28 29z m-364 163l233 0 0-103c0-5 4-10 10-10l88 0 0-50-331 0z m331-466l-331 0 0 96 331 0z m-306 207l10 0c9 0 15 1 20 5 4 3 7 9 7 15 0 7-2 12-6 15-4 4-10 5-17 5l-14 0z m66 21c0-14-5-26-14-34-9-7-22-11-39-11l-13 0 0-49-29 0 0 137 44 0c17 0 29-4 38-11 9-7 13-18 13-32z m140-24c0-23-7-40-20-52-13-12-31-18-55-18l-39 0 0 137 43 0c22 0 40-6 52-18 12-11 19-28 19-49z m-31-1c0 30-13 44-39 44l-15 0 0-89 12 0c28 0 42 15 42 45z m88-69l-29 0 0 137 78 0 0-24-49 0 0-35 46 0 0-24-46 0z"/>
<glyph glyph-name="numbers-black" unicode="&#66;" d="M441 329l-13 0 0 59c0 1 0 1 0 1 0 3 0 5-2 7l-99 113c0 0 0 0 0 0 0 0-1 1-2 1 0 0 0 1 0 1-1 0-2 0-2 1-1 0-1 0-1 0-1 0-2 0-2 0l-243 0c-11 0-20-9-20-20l0-163-12 0c-16 0-29-13-29-29l0-149c0-16 13-29 29-29l12 0 0-102c0-11 9-20 20-20l331 0c11 0 20 9 20 20l0 102 13 0c16 0 28 13 28 29l0 149c0 16-12 29-28 29z m-364 163l233 0 0-103c0-5 4-10 10-10l88 0 0-50-331 0z m331-466l-331 0 0 96 331 0z m-243 134l-37 0-60 104 0 0c1-19 1-32 1-40l0-64-26 0 0 137 37 0 60-103 0 0c-1 18-1 31-1 38l0 65 26 0z m73 0l-33 108-1 0c2-22 2-37 2-44l0-64-26 0 0 137 40 0 32-105 1 0 34 105 40 0 0-137-27 0 0 65c0 3 0 6 0 10 0 4 0 15 1 32l-1 0-35-107z m104 137l43 0c19 0 33-3 42-8 9-6 13-15 13-27 0-8-2-15-5-20-4-5-9-8-16-9l0-1c9-2 15-6 19-11 4-5 6-12 6-21 0-13-5-23-14-30-9-7-21-10-37-10l-51 0z m29-54l17 0c8 0 14 1 17 3 4 3 5 7 5 13 0 5-1 9-5 11-4 2-10 3-19 3l-15 0z m0-23l0-36 19 0c8 0 14 2 18 5 4 3 6 7 6 14 0 11-9 17-25 17z"/>
<glyph glyph-name="psd-black" unicode="&#67;" d="M441 329l-13 0 0 59c0 1 0 1 0 1 0 3 0 5-2 7l-99 113c0 0 0 0 0 0 0 0-1 1-2 1 0 0 0 1 0 1-1 0-2 0-2 1-1 0-1 0-1 0-1 0-2 0-2 0l-243 0c-11 0-20-9-20-20l0-163-12 0c-16 0-29-13-29-29l0-149c0-16 13-29 29-29l12 0 0-102c0-11 9-20 20-20l331 0c11 0 20 9 20 20l0 102 13 0c16 0 28 13 28 29l0 149c0 16-12 29-28 29z m-364 163l233 0 0-103c0-5 4-10 10-10l88 0 0-50-331 0z m331-466l-331 0 0 96 331 0z m-306 207l10 0c9 0 15 1 20 5 4 3 6 9 6 15 0 7-1 12-5 15-4 4-10 5-18 5l-13 0z m66 21c0-14-5-26-14-34-9-7-22-11-39-11l-13 0 0-49-29 0 0 137 44 0c16 0 29-4 38-11 8-7 13-18 13-32z m107-56c0-12-5-22-14-29-9-7-21-11-37-11-15 0-28 3-39 8l0 27c9-4 17-7 24-8 6-2 12-3 17-3 7 0 11 1 15 4 3 2 5 6 5 11 0 2-1 5-2 7-2 2-4 4-7 6-3 2-9 5-18 9-8 4-14 8-18 11-5 4-8 8-10 13-3 5-4 11-4 17 0 12 4 22 12 29 8 7 20 10 34 10 7 0 14-1 21-3 6-1 13-4 20-7l-10-22c-7 3-13 5-18 6-4 1-9 2-14 2-5 0-9-1-12-4-3-3-5-6-5-10 0-3 1-5 2-7 1-2 3-3 6-5 2-2 8-5 18-10 13-6 22-12 26-18 5-6 8-14 8-23z m138 32c0-23-6-40-19-52-13-12-32-18-56-18l-39 0 0 137 43 0c23 0 40-6 53-18 12-11 18-28 18-49z m-30-1c0 30-13 44-39 44l-16 0 0-89 13 0c28 0 42 15 42 45z"/>
<glyph glyph-name="rar-black" unicode="&#68;" d="M441 329l-13 0 0 59c0 1 0 1 0 1 0 3 0 5-2 7l-99 113c0 0 0 0 0 0 0 0-1 1-2 1 0 0 0 1 0 1-1 0-2 0-2 1-1 0-1 0-1 0-1 0-2 0-2 0l-243 0c-11 0-20-9-20-20l0-163-12 0c-16 0-29-13-29-29l0-149c0-16 13-29 29-29l12 0 0-102c0-11 9-20 20-20l331 0c11 0 20 9 20 20l0 102 13 0c16 0 28 13 28 29l0 149c0 16-12 29-28 29z m-364 163l233 0 0-103c0-5 4-10 10-10l88 0 0-50-331 0z m331-466l-331 0 0 96 331 0z m-315 210l10 0c9 0 16 2 20 5 4 3 7 8 7 14 0 7-3 11-7 14-5 3-11 4-21 4l-9 0z m0-23l0-53-29 0 0 137 40 0c19 0 33-3 42-10 8-7 13-17 13-31 0-8-2-15-7-22-4-6-10-11-19-14 21-31 35-51 41-60l-32 0-33 53z m182-53l-10 33-50 0-10-33-31 0 48 138 36 0 48-138z m-17 57c-9 30-14 46-15 50-2 4-2 7-3 9-2-8-8-27-18-59z m95 19l9 0c9 0 16 2 20 5 5 3 7 8 7 14 0 7-2 11-7 14-4 3-11 4-21 4l-8 0z m0-23l0-53-30 0 0 137 40 0c19 0 33-3 42-10 9-7 13-17 13-31 0-8-2-15-6-22-5-6-11-11-19-14 20-31 34-51 40-60l-32 0-33 53z"/>
<glyph glyph-name="rtf-black" unicode="&#69;" d="M441 329l-13 0 0 59c0 1 0 1 0 1 0 3 0 5-2 7l-99 113c0 0 0 0 0 0 0 0-1 1-2 1 0 0 0 1 0 1-1 0-2 0-2 1-1 0-1 0-1 0-1 0-2 0-2 0l-243 0c-11 0-20-9-20-20l0-163-12 0c-16 0-29-13-29-29l0-149c0-16 13-29 29-29l12 0 0-102c0-11 9-20 20-20l331 0c11 0 20 9 20 20l0 102 13 0c16 0 28 13 28 29l0 149c0 16-12 29-28 29z m-364 163l233 0 0-103c0-5 4-10 10-10l88 0 0-50-331 0z m331-466l-331 0 0 96 331 0z m-293 210l9 0c9 0 16 2 20 5 5 3 7 8 7 14 0 7-2 11-7 14-4 3-11 4-21 4l-8 0z m0-23l0-53-29 0 0 137 40 0c18 0 32-3 41-10 9-7 13-17 13-31 0-8-2-15-6-22-5-6-11-11-19-14 20-31 34-51 40-60l-32 0-33 53z m150-53l-29 0 0 113-37 0 0 24 103 0 0-24-37 0z m87 0l-28 0 0 137 78 0 0-24-50 0 0-35 47 0 0-24-47 0z"/>
<glyph glyph-name="svg-black" unicode="&#70;" d="M441 329l-13 0 0 59c0 1 0 1 0 1 0 3 0 5-2 7l-99 113c0 0 0 0 0 0 0 0-1 1-2 1 0 0 0 1 0 1-1 0-2 0-2 1-1 0-1 0-1 0-1 0-2 0-2 0l-243 0c-11 0-20-9-20-20l0-163-12 0c-16 0-29-13-29-29l0-149c0-16 13-29 29-29l12 0 0-102c0-11 9-20 20-20l331 0c11 0 20 9 20 20l0 102 13 0c16 0 28 13 28 29l0 149c0 16-12 29-28 29z m-364 163l233 0 0-103c0-5 4-10 10-10l88 0 0-50-331 0z m331-466l-331 0 0 96 331 0z m-254 172c0-12-4-22-13-29-9-7-21-11-37-11-15 0-28 3-39 8l0 27c9-4 17-7 23-8 7-2 13-3 18-3 6 0 11 1 15 4 3 2 5 6 5 11 0 2-1 5-2 7-2 2-4 4-7 6-3 2-9 5-18 9-8 4-14 8-19 11-4 4-7 8-10 13-2 5-3 11-3 17 0 12 4 22 12 29 8 7 19 10 34 10 7 0 14-1 20-3 7-1 14-4 21-7l-10-22c-7 3-13 5-18 6-5 1-9 2-14 2-5 0-10-1-13-4-3-3-4-6-4-10 0-3 1-5 2-7 1-2 3-3 5-5 3-2 9-5 19-10 13-6 21-12 26-18 5-6 7-14 7-23z m103 99l30 0-47-137-32 0-46 137 29 0 26-82c1-4 3-10 4-16 2-7 3-11 3-14 1 6 3 16 7 30z m97-60l54 0 0-71c-8-3-17-5-24-6-8-1-16-2-24-2-21 0-37 6-48 18-11 13-16 30-16 53 0 22 6 39 19 51 13 13 30 19 53 19 14 0 27-3 40-8l-9-24c-10 5-21 8-32 8-12 0-22-4-30-13-7-8-11-20-11-34 0-15 3-26 9-34 6-8 15-12 27-12 6 0 12 1 18 2l0 29-26 0z"/>
<glyph glyph-name="tif-black" unicode="&#71;" d="M441 329l-13 0 0 59c0 1 0 1 0 1 0 3 0 5-2 7l-99 113c0 0 0 0 0 0 0 0-1 1-2 1 0 0 0 1 0 1-1 0-2 0-2 1-1 0-1 0-1 0-1 0-2 0-2 0l-243 0c-11 0-20-9-20-20l0-163-12 0c-16 0-29-13-29-29l0-149c0-16 13-29 29-29l12 0 0-102c0-11 9-20 20-20l331 0c11 0 20 9 20 20l0 102 13 0c16 0 28 13 28 29l0 149c0 16-12 29-28 29z m-364 163l233 0 0-103c0-5 4-10 10-10l88 0 0-50-331 0z m331-466l-331 0 0 96 331 0z m-238 134l-29 0 0 113-37 0 0 24 103 0 0-24-37 0z m58 0l0 137 29 0 0-137z m93 0l-29 0 0 137 79 0 0-24-50 0 0-35 46 0 0-24-46 0z"/>
<glyph glyph-name="txt-black" unicode="&#72;" d="M441 329l-13 0 0 59c0 1 0 1 0 1 0 3 0 5-2 7l-99 113c0 0 0 0 0 0 0 0-1 1-2 1 0 0 0 1 0 1-1 0-2 0-2 1-1 0-1 0-1 0-1 0-2 0-2 0l-243 0c-11 0-20-9-20-20l0-163-12 0c-16 0-29-13-29-29l0-149c0-16 13-29 29-29l12 0 0-102c0-11 9-20 20-20l331 0c11 0 20 9 20 20l0 102 13 0c16 0 28 13 28 29l0 149c0 16-12 29-28 29z m-364 163l233 0 0-103c0-5 4-10 10-10l88 0 0-50-331 0z m331-466l-331 0 0 96 331 0z m-273 134l-29 0 0 113-37 0 0 24 103 0 0-24-37 0z m169 0l-33 0-32 52-32-52-31 0 45 71-42 66 32 0 29-49 29 49 32 0-43-68z m70 0l-29 0 0 113-37 0 0 24 103 0 0-24-37 0z"/>
<glyph glyph-name="xls-black" unicode="&#73;" d="M441 329l-13 0 0 59c0 1 0 1 0 1 0 3 0 5-2 7l-99 113c0 0 0 0 0 0 0 0-1 1-2 1 0 0 0 1 0 1-1 0-2 0-2 1-1 0-1 0-1 0-1 0-2 0-2 0l-243 0c-11 0-20-9-20-20l0-163-12 0c-16 0-29-13-29-29l0-149c0-16 13-29 29-29l12 0 0-102c0-11 9-20 20-20l331 0c11 0 20 9 20 20l0 102 13 0c16 0 28 13 28 29l0 149c0 16-12 29-28 29z m-364 163l233 0 0-103c0-5 4-10 10-10l88 0 0-50-331 0z m331-466l-331 0 0 96 331 0z m-211 134l-33 0-32 52-32-52-31 0 45 71-42 66 32 0 29-49 29 49 32 0-43-68z m17 0l0 137 29 0 0-113 56 0 0-24z m190 38c0-12-5-22-14-29-9-7-21-11-37-11-15 0-28 3-39 8l0 27c9-4 17-7 24-8 6-2 12-3 17-3 7 0 12 1 15 4 3 2 5 6 5 11 0 2-1 5-2 7-2 2-4 4-7 6-3 2-9 5-18 9-8 4-14 8-18 11-5 4-8 8-10 13-3 5-4 11-4 17 0 12 4 22 12 29 8 7 20 10 34 10 7 0 14-1 21-3 6-1 13-4 20-7l-9-22c-8 3-14 5-19 6-4 1-9 2-14 2-5 0-9-1-12-4-3-3-5-6-5-10 0-3 1-5 2-7 1-2 3-3 6-5 2-2 8-5 18-10 13-6 22-12 26-18 5-6 8-14 8-23z"/>
<glyph glyph-name="zip-black" unicode="&#74;" d="M441 329l-13 0 0 59c0 1 0 1 0 1 0 3 0 5-2 7l-99 113c0 0 0 0 0 0 0 0-1 1-2 1 0 0 0 1 0 1-1 0-2 0-2 1-1 0-1 0-1 0-1 0-2 0-2 0l-243 0c-11 0-20-9-20-20l0-163-12 0c-16 0-29-13-29-29l0-149c0-16 13-29 29-29l12 0 0-102c0-11 9-20 20-20l331 0c11 0 20 9 20 20l0 102 13 0c16 0 28 13 28 29l0 149c0 16-12 29-28 29z m-364 163l233 0 0-103c0-5 4-10 10-10l88 0 0-50-331 0z m331-466l-331 0 0 96 331 0z m-209 134l-102 0 0 19 66 94-64 0 0 24 98 0 0-19-65-94 67 0z m22 0l0 137 29 0 0-137z m92 73l10 0c9 0 16 1 20 5 4 3 7 9 7 15 0 7-2 12-6 15-4 4-9 5-17 5l-14 0z m66 21c0-14-5-26-14-34-9-7-22-11-39-11l-13 0 0-49-29 0 0 137 44 0c17 0 29-4 38-11 9-7 13-18 13-32z"/>
<glyph glyph-name="pages-black" unicode="&#75;" d="M441 329l-13 0 0 59c0 1 0 1 0 1 0 3 0 5-2 7l-99 113c0 0 0 0 0 0 0 0-1 1-2 1 0 0 0 1 0 1-1 0-2 0-2 1-1 0-1 0-1 0-1 0-2 0-2 0l-243 0c-11 0-20-9-20-20l0-163-12 0c-16 0-29-13-29-29l0-149c0-16 13-29 29-29l12 0 0-102c0-11 9-20 20-20l331 0c11 0 20 9 20 20l0 102 13 0c16 0 28 13 28 29l0 149c0 16-12 29-28 29z m-364 163l233 0 0-103c0-5 4-10 10-10l88 0 0-50-331 0z m331-466l-331 0 0 96 331 0z m-304 207l9 0c9 0 16 1 20 5 5 3 7 9 7 15 0 7-2 12-6 15-3 4-9 5-17 5l-13 0z m65 21c0-14-4-26-14-34-9-7-22-11-39-11l-12 0 0-49-29 0 0 137 43 0c17 0 30-4 38-11 9-7 13-18 13-32z m78-17l55 0 0-71c-9-3-18-5-25-6-8-1-16-2-24-2-21 0-37 6-48 18-10 13-16 30-16 53 0 22 6 39 19 51 13 13 30 19 53 19 14 0 27-3 40-8l-9-24c-10 5-21 8-32 8-12 0-22-4-30-13-7-8-11-20-11-34 0-15 3-26 9-34 6-8 15-12 27-12 6 0 12 1 18 2l0 29-26 0z m168-39c0-12-4-22-13-29-9-7-22-11-37-11-15 0-28 3-39 8l0 27c9-4 17-7 23-8 7-2 12-3 18-3 6 0 11 1 14 4 4 2 6 6 6 11 0 2-1 5-3 7-1 2-3 4-6 6-3 2-9 5-18 9-8 4-15 8-19 11-4 4-7 8-10 13-2 5-4 11-4 17 0 12 4 22 13 29 8 7 19 10 34 10 7 0 14-1 20-3 7-1 13-4 20-7l-9-22c-7 3-13 5-18 6-5 1-10 2-14 2-6 0-10-1-13-4-3-3-4-6-4-10 0-3 0-5 2-7 1-2 3-3 5-5 3-2 9-5 19-10 12-6 21-12 26-18 5-6 7-14 7-23z"/>
<glyph glyph-name="mi-calendario-black" unicode="&#97;" d="M16 368l0-328c0-13 11-24 24-24l432 0c13 0 24 11 24 24l0 328z m0 16l480 0 0 88c0 13-11 24-24 24l-432 0c-13 0-24-11-24-24z m496-344c0-22-18-40-40-40l-432 0c-22 0-40 18-40 40l0 432c0 22 18 40 40 40l432 0c22 0 40-18 40-40z m-336 286l0-240c0-5 4-8 8-8 4 0 8 3 8 8l0 240c0 5-4 8-8 8-4 0-8-3-8-8z m144 0l0-240c0-5 4-8 8-8 4 0 8 3 8 8l0 240c0 5-4 8-8 8-4 0-8-3-8-8z m56-38l-240 0c-4 0-8-4-8-8 0-4 4-8 8-8l240 0c4 0 8 4 8 8 0 4-4 8-8 8z m0-144l-240 0c-4 0-8-4-8-8 0-4 4-8 8-8l240 0c4 0 8 4 8 8 0 4-4 8-8 8z m-240 288l48 0c4 0 8 4 8 8 0 4-4 8-8 8l-48 0c-4 0-8-4-8-8 0-4 4-8 8-8z m208 0l48 0c4 0 8 4 8 8 0 4-4 8-8 8l-48 0c-4 0-8-4-8-8 0-4 4-8 8-8z"/>
<glyph glyph-name="search-black" unicode="&#76;" d="M374 159l131-131c6-6 6-16 0-21-5-6-15-6-21 0l-131 131c-36-31-83-50-134-50-112 0-204 92-204 205 0 112 92 204 204 204 113 0 205-92 205-204 0-51-19-98-50-134z m-155-41c97 0 175 78 175 175 0 96-78 174-175 174-96 0-174-78-174-174 0-97 78-175 174-175z"/>
<glyph glyph-name="cross-remove" unicode="&#77;" d="M256 301l-201 202c-13 12-33 12-46 0-12-13-12-33 0-46l202-201-202-201c-12-13-12-33 0-46 13-12 33-12 46 0l201 202 201-202c13-12 33-12 46 0 12 13 12 33 0 46l-202 201 202 201c12 13 12 33 0 46-13 12-33 12-46 0z"/>
<glyph glyph-name="eye-black" unicode="&#78;" d="M36 256c45-79 129-128 220-128 91 0 175 49 220 128-45 79-129 128-220 128-91 0-175-49-220-128m220-160c-106 0-203 58-252 153l-4 7 4 7c49 95 146 153 252 153 106 0 203-58 252-153l4-7-4-7c-49-95-146-153-252-153z m0 64c53 0 96 43 96 96 0 53-43 96-96 96-53 0-96-43-96-96 0-53 43-96 96-96z m0 32c-35 0-64 29-64 64 0 35 29 64 64 64 35 0 64-29 64-64 0-35-29-64-64-64z"/>
<glyph glyph-name="documents-black" unicode="&#79;" d="M416 480l-320 0 0-448 320 0z m13-480l-346 0c-11 0-19 8-19 19l0 474c0 11 8 19 19 19l346 0c11 0 19-8 19-19l0-474c0-11-8-19-19-19z m-141 208c0 9-7 16-16 16l-128 0c-9 0-16-7-16-16 0-9 7-16 16-16l128 0c9 0 16 7 16 16z m96 96c0 9-7 16-16 16l-224 0c-9 0-16-7-16-16 0-9 7-16 16-16l224 0c9 0 16 7 16 16z m0 96c0 9-7 16-16 16l-224 0c-9 0-16-7-16-16 0-9 7-16 16-16l224 0c9 0 16 7 16 16z"/>
</font>
</defs>
</svg>
